<?xml version="1.0" encoding="UTF-8" standalone="no"?>
<svg
   version="1.1"
   viewBox="0 0 47.5 47.5"
   style="enable-background:new 0 0 47.5 47.5;"
   id="svg2"
   xml:space="preserve"
   sodipodi:docname="icon.svg"
   inkscape:version="1.1.1 (3bf5ae0d25, 2021-09-20)"
   xmlns:inkscape="http://www.inkscape.org/namespaces/inkscape"
   xmlns:sodipodi="http://sodipodi.sourceforge.net/DTD/sodipodi-0.dtd"
   xmlns="http://www.w3.org/2000/svg"
   xmlns:svg="http://www.w3.org/2000/svg"><sodipodi:namedview
     id="namedview21"
     pagecolor="#ffffff"
     bordercolor="#666666"
     borderopacity="1.0"
     inkscape:pageshadow="2"
     inkscape:pageopacity="0.0"
     inkscape:pagecheckerboard="0"
     showgrid="false"
     inkscape:zoom="9.7684211"
     inkscape:cx="47.551185"
     inkscape:cy="24.978448"
     inkscape:window-width="1366"
     inkscape:window-height="699"
     inkscape:window-x="0"
     inkscape:window-y="0"
     inkscape:window-maximized="1"
     inkscape:current-layer="g16" /><defs
     id="defs6"><clipPath
       id="clipPath18"><path
         d="M 0,38 38,38 38,0 0,0 0,38 z"
         id="path20" /></clipPath></defs><g
     transform="matrix(1.25,0,0,-1.25,0,47.5)"
     id="g12"><g
       id="g14"><g
         clip-path="url(#clipPath18)"
         id="g16"><g
           id="g898"
           transform="rotate(90,19,19)"><g
             transform="translate(37,5)"
             id="g22"
             style="fill:#d90368;fill-opacity:1"><path
               d="m 0,0 c 0,-2.209 -1.791,-4 -4,-4 h -28 c -2.209,0 -4,1.791 -4,4 v 28 c 0,2.209 1.791,4 4,4 h 28 c 2.209,0 4,-1.791 4,-4 z"
               id="path24"
               style="fill:#d90368;fill-opacity:1;fill-rule:nonzero;stroke:none" /></g><g
             transform="translate(13.9526,21.2827)"
             id="g26"><path
               d="M 0,0 C 0.549,1.394 1.234,2.861 2.175,4.142 0.997,5.653 -0.602,6.717 -2.953,6.717 h -3 v -4 h 3 C -1.646,2.717 -0.834,1.821 0,0"
               id="path28"
               style="fill:#ffffff;fill-opacity:1;fill-rule:nonzero;stroke:none" /></g><g
             transform="translate(20.4805,15.8594)"
             id="g30"><path
               d="m 0,0 c -0.479,-1.314 -1.059,-2.777 -1.852,-4.132 1.089,-1.046 2.489,-1.727 4.372,-1.727 h 3 v 4 h -3 C 1.437,-1.859 0.697,-1.239 0,0"
               id="path32"
               style="fill:#ffffff;fill-opacity:1;fill-rule:nonzero;stroke:none" /></g><g
             transform="translate(11,10)"
             id="g34"><path
               d="M 0,0 H -3 V 4 H 0 C 1.884,4 2.739,5.816 4.117,9.673 5.441,13.383 7.09,18 12,18 h 3 V 14 H 12 C 10.115,14 9.261,12.183 7.883,8.327 6.559,4.617 4.91,0 0,0"
               id="path36"
               style="fill:#ffffff;fill-opacity:1;fill-rule:nonzero;stroke:none" /></g><g
             transform="translate(31.2002,26)"
             id="g38"><path
               d="M 0,0 -7.2,6 V -6 Z"
               id="path40"
               style="fill:#ffffff;fill-opacity:1;fill-rule:nonzero;stroke:none" /></g><g
             transform="translate(31.2002,12)"
             id="g42"><path
               d="M 0,0 -7.2,6 V -6 Z"
               id="path44"
               style="fill:#ffffff;fill-opacity:1;fill-rule:nonzero;stroke:none" /></g></g></g></g></g></svg>
